<svg aria-hidden="true" style="width:0;height:0;position:absolute;overflow:hidden" xmlns="http://www.w3.org/2000/svg"><defs><symbol id="icon-clock" viewBox="0 0 32 32"><path d="M16 0C7.163 0 0 7.163 0 16s7.163 16 16 16 16-7.163 16-16S24.837 0 16 0zm0 30.976C7.729 30.976 1.024 24.271 1.024 16S7.729 1.024 16 1.024 30.976 7.729 30.976 16 24.271 30.976 16 30.976z"/><path d="M16.64 13.824V8.448a.64.64 0 0 0-1.28 0v5.376c-.64.256-1.28.896-1.408 1.536h-3.84a.576.576 0 0 0 0 1.152h3.84a2.176 2.176 0 1 0 2.574-2.557l-.014-.002zm-.64 3.2a1.088 1.088 0 1 1 0-2.176 1.088 1.088 0 1 1 0 2.176zm0-11.776c.256 0 .512-.256.512-.512v-.512a.512.512 0 1 0-1.024 0v.512c0 .256.256.512.512.512zm0 21.376c-.256 0-.512.256-.512.512v.512a.512.512 0 1 0 1.024 0v-.512c0-.256-.256-.512-.512-.512zM27.776 15.36h-.512a.576.576 0 0 0 0 1.152h.512a.576.576 0 0 0 0-1.152zm-22.912 0h-.64a.576.576 0 0 0 0 1.152h.64a.576.576 0 0 0 0-1.152zm19.072-8.064-.384.384a.542.542 0 1 0 .768.768l.384-.384a.542.542 0 1 0-.768-.768zM7.68 23.424l-.384.384a.542.542 0 1 0 .768.768l.384-.384a.542.542 0 1 0-.768-.768zm16.64 0a.542.542 0 1 0-.768.768l.384.384a.512.512 0 0 0 .768 0v-.769l-.384-.384zM8.064 7.296a.542.542 0 1 0-.768.768l.384.384a.512.512 0 0 0 .768 0v-.001c.256-.256.256-.64 0-.768l-.384-.384z"/></symbol><symbol id="icon-cooking" viewBox="0 0 32 32"><path d="m23.04 8.576-.256-.128-.128-.384a7.655 7.655 0 0 0-1.927-5l.007.008c-1.28-1.28-2.816-2.048-4.352-2.048-1.664 0-3.328.768-4.48 2.048a7.644 7.644 0 0 0-1.92 5.08v.042-.002.256l-.384.128-.256-.128-.128-.384c0-2.176.768-4.224 2.048-5.76C12.544.896 14.464 0 16.384 0c1.792 0 3.584.896 4.992 2.304 1.28 1.536 2.048 3.584 2.048 5.76v.384l-.384.128z"/><path d="m24.32 19.712-.384-.128v-.64l.384-.256c1.664 0 3.2-.64 4.352-2.048 1.146-1.334 1.844-3.081 1.844-4.992s-.698-3.658-1.852-5.002l.009.01a5.88 5.88 0 0 0-4.511-2.103 5.88 5.88 0 0 0-1.931.324l.041-.012h-.256l-.256-.256v-.384l.384-.256a6.525 6.525 0 0 1 2.154-.358 6.64 6.64 0 0 1 5.007 2.271l.007.008c1.328 1.537 2.137 3.554 2.137 5.76s-.809 4.223-2.146 5.771l.01-.011a6.645 6.645 0 0 1-5.037 2.305l-.088-.001h.004zm-16 0c-1.792 0-3.584-.896-4.992-2.304-1.328-1.537-2.137-3.554-2.137-5.76S2 7.425 3.337 5.877l-.01.011A6.646 6.646 0 0 1 8.341 3.61a6.63 6.63 0 0 1 2.201.373l-.047-.014h.256v.256a.507.507 0 0 1-.001.514l.001-.002v.128a.38.38 0 0 1-.512 0l-1.792-.256c-1.664 0-3.328.512-4.608 2.048a7.64 7.64 0 0 0-1.844 4.992c0 1.911.698 3.658 1.852 5.002l-.009-.01c1.28 1.28 2.688 2.048 4.352 2.048h.256v.256h.128a.508.508 0 0 1-.001.641l.001-.001h-.256v.128z"/><path d="M24.32 32h-16l-.256-.128-.128-.384V18.944l.384-.256c.128 0 .256 0 .384.256v12.032h15.104V19.2l.128-.256.384-.256s.256 0 .256.256l.128.256V32l-.384.128z"/><path d="M27.264 27.264H11.52l-.384-.128v-.768l.384-.128h15.872l.384.128v.768h-.384z"/></symbol><symbol id="icon-facebook" viewBox="0 0 32 32"><path d="M22.6 0h-3.8c-4 0-6.6 3-6.6 8v3.6H8.6c-.4 0-.6.2-.6.6v5.2c0 .4.2.6.6.6H12v13.4c0 .4.2.6.6.6h4.8c.2 0 .4-.2.4-.6V18h4.4c.2 0 .6-.2.6-.6v-5.2l-.2-.6H18V8.4c0-1.4.4-2.2 2-2.2h2.6c.2 0 .4-.2.4-.6v-5c0-.4 0-.6-.4-.6z"/></symbol><symbol id="icon-guests" viewBox="0 0 32 32"><path d="M11.904 0C8.576 0 5.888 3.072 5.888 6.912s2.688 6.784 6.016 6.784 6.016-3.072 6.016-6.784C17.92 3.072 15.232 0 11.904 0zm0 12.544c-2.816 0-4.992-2.56-4.992-5.632 0-3.2 2.176-5.76 4.992-5.76 2.688 0 4.992 2.56 4.992 5.76 0 3.072-2.304 5.632-5.12 5.632zm12.16-9.728c-2.432 0-4.48 2.304-4.48 5.12 0 2.944 2.048 5.12 4.48 5.12 2.56 0 4.608-2.176 4.608-5.12 0-2.816-2.048-5.12-4.608-5.12zm0 9.216c-1.92 0-3.456-1.792-3.456-4.096 0-2.176 1.536-3.84 3.456-3.84 2.048 0 3.584 1.664 3.584 3.84 0 2.304-1.536 4.096-3.584 4.096z"/><path d="M32.128 20.736a8.981 8.981 0 0 0-5.066-7.145l-.054-.023s-1.28 1.024-2.944 1.024c-1.792 0-2.944-1.024-2.944-1.024s-1.28.512-2.56 1.792a12.171 12.171 0 0 0-2.623-1.888l-.065-.032s-1.664 1.408-3.968 1.28c-2.56 0-3.84-1.28-3.84-1.28s-5.504 2.048-6.656 9.216c0 0-1.28 3.84 1.536 9.344H20.48s1.28-2.56 1.536-3.968h8.704c2.176-3.84 1.28-7.296 1.28-7.296zm-12.032 10.24H3.712c-2.176-4.736-1.28-8.192-1.28-8.192.64-3.584 2.56-6.4 5.504-8.064 2.432 1.664 5.504 1.664 7.936 0 2.912 1.671 4.944 4.592 5.371 8.011l.005.053s.896 4.224-1.28 8.064zm10.24-4.096h-8.064c.384-2.048 0-4.224 0-4.224-.384-2.56-1.408-4.736-2.944-6.4.512-.64 1.152-1.024 1.664-1.408 1.92 1.28 4.352 1.28 6.144 0 2.176 1.152 3.584 3.328 3.968 6.016 0 0 .768 2.816-.768 6.016z"/></symbol><symbol id="icon-instagram" viewBox="0 0 32 32"><path d="M16.4 32H16l-7-.2c-2 0-4-.8-5.6-2a8.803 8.803 0 0 1-2.79-4.742L.6 25C0 23.2 0 21.6 0 20c.14-5.041.356-9.564.657-14.063L.6 7C1 5 2 3.4 3.4 2.2 5 1 6.8.2 9 .2c2.093-.14 4.537-.22 7-.22s4.907.08 7.33.237L23 .2c2 0 4 .8 5.6 2C30 3.4 31 5 31.4 7c.174 1.869.388 4.986.561 8.115L32 16a334.784 334.784 0 0 1-.682 10.236L31.4 25c-.4 2-1.4 3.6-2.8 4.8-1.6 1.2-3.4 2-5.6 2l-6.6.2zm-.4-2.6h7c1.4 0 2.8-.6 4-1.6 1-.8 1.6-2 2-3.4s.4-3 .4-4.4c-.07-4.629-.215-8.957-.435-13.264L29 7.6c-.4-1.4-1-2.6-2-3.4-1.2-1-2.6-1.4-4-1.6-2.093-.143-4.537-.225-7-.225s-4.907.082-7.329.242L9 2.6c-1.4 0-2.8.6-4 1.6-1 .8-1.6 2-2 3.4s-.4 3-.4 4.4c.069 4.621.213 8.948.435 13.255L3 24.4c.4 1.4 1 2.6 2 3.4 1.2 1 2.6 1.4 4 1.6h7zm0-5.4a8 8 0 1 1 .054-15.589L16 8.4c3.59.839 6.222 4.012 6.222 7.8s-2.633 6.961-6.168 7.789L16 24zm0-13.2a5.4 5.4 0 0 0 0 10.8 5.4 5.4 0 0 0 0-10.8zm8.6-5a2 2 0 1 0 0 4 2 2 0 1 0 0-4z"/></symbol><symbol id="icon-location" viewBox="0 0 23 32"><path d="M11.733 0c6.4 0 11.733 5.12 11.733 11.52 0 2.347-.853 4.693-2.347 6.827l-8.533 11.307h-.213c-.427.427-1.067.427-1.28 0l-8.96-11.52C.853 16.001 0 13.867 0 11.521 0 5.121 5.333.001 11.733.001zm0 17.707a6.4 6.4 0 0 0 6.4-6.4c-.23-3.346-3.001-5.973-6.386-5.973h-.015.001-.004a6.4 6.4 0 0 0-6.396 6.176v.011a6.402 6.402 0 0 0 6.396 6.187h.004z"/></symbol><symbol id="icon-pagination" viewBox="0 0 192 32"><path d="M85.6 24v1.6H73.12v-1.28l7.36-7.36c.96-.96 1.6-1.6 1.92-2.4l.48-1.92c0-1.12-.32-1.92-1.12-2.56a4.757 4.757 0 0 0-3.221-.798l.021-.002c-1.92 0-3.52.64-4.8 1.92l-1.28-1.12c.8-.8 1.6-1.44 2.72-1.92a9.42 9.42 0 0 1 3.691-.64h-.012c1.76 0 3.2.48 4.32 1.28 1.12.96 1.6 2.08 1.6 3.52 0 .96-.16 1.92-.64 2.72a11.274 11.274 0 0 1-2.233 2.873l-.007.007-6.08 6.08h9.76zm9.12-20h1.6l-8.48 24.16h-1.6l8.48-24zm7.68 3.68V25.6h-1.92V9.28h-4.16v-1.6h6.08zm8.96 7.36c2.56 0 4.48.48 5.6 1.44 1.28.8 1.76 2.24 1.76 3.84 0 1.12-.16 1.92-.64 2.72-.48.96-1.28 1.6-2.24 2.08-1.072.388-2.31.613-3.6.613s-2.528-.225-3.676-.637l.076.024c-1.12-.48-2.08-.96-2.72-1.6l.8-1.6c.64.64 1.44 1.12 2.4 1.6.96.32 2.08.48 3.2.48 1.44 0 2.56-.32 3.36-.96s1.28-1.6 1.28-2.56a3.195 3.195 0 0 0-1.429-2.872l-.012-.007c-.96-.64-2.4-.96-4.64-.96h-3.68l.96-8.96h9.76v1.6h-8l-.8 5.76h2.4z"/><path fill="none" stroke="#ab816c" style="stroke:var(--color2,#ab816c)" stroke-width="1.6" d="M136 15.2h56m-136 0H0"/></symbol><symbol id="icon-phone" viewBox="0 0 32 32"><path d="m29.538 20.431-5.908-.738a2.454 2.454 0 0 0-2.464.494l.002-.002-3.692 2.462c-3.826-1.887-6.875-4.857-8.81-8.508l-.052-.107 2.462-3.446c.985-.738 1.231-1.477.738-2.462-.476-1.504-.75-3.234-.75-5.029 0-.223.004-.444.013-.665l-.001.032C11.076 1.231 9.845 0 8.614 0H2.46A2.462 2.462 0 0 0-.002 2.462c0 15.754 13.292 28.8 29.538 28.8 1.231 0 2.462-1.231 2.462-2.462v-5.908c0-1.231-1.231-2.462-2.462-2.462z"/></symbol><symbol id="icon-rate4" viewBox="0 0 173 32"><path d="M14.208 4.736a1.28 1.28 0 1 1 2.56 0l1.792 5.76c.256.64.64.896 1.28.896h6.144a1.28 1.28 0 0 1 .771 2.302l-5.123 3.714a1.28 1.28 0 0 0-.381 1.417l-.003-.009 1.92 5.888a1.28 1.28 0 0 1-1.925 1.405l.005.003-5.12-3.584a1.277 1.277 0 0 0-1.413.003l.005-.003-5.12 3.584a1.28 1.28 0 0 1-1.791-1.416l-.001.008L9.6 18.816a1.276 1.276 0 0 0-.383-1.406l-.002-.002-5.12-3.712a1.28 1.28 0 0 1 1.029-2.175h-.005 6.144l.059.001c.57 0 1.053-.373 1.219-.888l.002-.009 1.536-5.888z"/><path fill="none" stroke="#ab816c" style="stroke:var(--color2,#ab816c)" stroke-width="1.28" d="M156.672 4.864c.256-.512 1.024-.512 1.28 0l1.92 5.888c.256.768 1.024 1.28 1.792 1.28h6.144c.64 0 .896.896.384 1.28l-4.992 3.584c-.64.512-.896 1.28-.64 2.176l1.92 5.76c.128.64-.512 1.152-1.024.768l-4.992-3.584c-.64-.512-1.536-.512-2.304 0l-4.992 3.584c-.512.384-1.152-.128-.896-.768l1.92-5.76c.256-.896 0-1.664-.768-2.176l-4.992-3.712a.64.64 0 0 1 .384-1.152h6.144c.896 0 1.664-.512 1.92-1.28l1.792-5.888z"/><path d="M120.704 4.736a1.282 1.282 0 0 1 2.429-.009l.003.009 1.792 5.76c.256.64.768.896 1.28.896h6.144a1.28 1.28 0 0 1 .771 2.302l-.003.002-4.992 3.712a1.282 1.282 0 0 0-.51 1.417l-.002-.009 1.92 5.888a1.28 1.28 0 0 1-1.925 1.405l.005.003-4.992-3.584c-.211-.16-.478-.256-.768-.256s-.557.096-.771.258l.003-.002-4.992 3.584a1.28 1.28 0 0 1-1.918-1.417l-.002.009 1.92-5.888a1.28 1.28 0 0 0-.507-1.405l-.004-.003-4.992-3.712a1.28 1.28 0 0 1 .763-2.176l.006-.001h6.144l.059.001c.57 0 1.053-.373 1.219-.888l.002-.009 1.92-5.76zm-35.584 0a1.28 1.28 0 1 1 2.56 0l1.792 5.76c.256.64.768.896 1.28.896h6.144a1.28 1.28 0 0 1 .771 2.302l-.003.002-4.992 3.712a1.282 1.282 0 0 0-.51 1.417l-.002-.009 1.92 5.888a1.28 1.28 0 0 1-1.925 1.405l.005.003-5.12-3.584a1.275 1.275 0 0 0-1.286.003l.006-.003-5.12 3.584a1.28 1.28 0 0 1-1.918-1.417l-.002.009 1.92-5.888a1.28 1.28 0 0 0-.507-1.405l-.004-.003-4.992-3.712a1.28 1.28 0 0 1 .768-2.304h6.016l.059.001c.57 0 1.053-.373 1.219-.888l.002-.009 1.792-5.76zm-35.456 0a1.28 1.28 0 1 1 2.56 0l1.792 5.76c.256.64.768.896 1.28.896h6.144a1.28 1.28 0 0 1 .771 2.302l-5.123 3.714a1.28 1.28 0 0 0-.381 1.417l-.003-.009 1.92 5.888a1.28 1.28 0 0 1-1.925 1.405l.005.003-5.12-3.584a1.277 1.277 0 0 0-1.413.003l.005-.003-4.992 3.584a1.28 1.28 0 0 1-1.918-1.417l-.002.009 1.92-5.888a1.28 1.28 0 0 0-.507-1.405l-.004-.003-5.12-3.712a1.28 1.28 0 0 1 .902-2.303l-.006-.001h6.144l.059.001c.57 0 1.053-.373 1.219-.888l.002-.009 1.792-5.76z"/></symbol><symbol id="icon-rate5" viewBox="0 0 181 32"><path d="M14.667 4a1.333 1.333 0 0 1 2.666 0l2 6.133c.133.533.667.933 1.333.933h6.4A1.334 1.334 0 0 1 28 13.333l-5.333 4a1.332 1.332 0 0 0-.398 1.476l-.003-.009 2 6.267a1.333 1.333 0 0 1-2.005 1.463l.005.003-5.333-3.867a1.326 1.326 0 0 0-1.603.002L10 26.532a1.333 1.333 0 0 1-1.997-1.476l-.002.009 1.867-6.4A1.332 1.332 0 0 0 9.47 17.2l-.002-.002-5.467-3.867a1.334 1.334 0 0 1 .8-2.4h6.533l.061.001c.594 0 1.097-.389 1.27-.925l.003-.009 2-6.133zM164 4a1.333 1.333 0 0 1 2.666 0l2 6.133c.133.533.667.933 1.333.933h6.4a1.333 1.333 0 0 1 .803 2.397l-5.337 3.869a1.331 1.331 0 0 0-.397 1.476l-.003-.009 2 6.267a1.333 1.333 0 0 1-2.005 1.463l.005.003-5.333-3.867a1.326 1.326 0 0 0-1.603.002l-5.33 3.864a1.333 1.333 0 0 1-1.997-1.476l-.002.009 2-6.267a1.332 1.332 0 0 0-.397-1.465l-.002-.002-5.333-3.867a1.334 1.334 0 0 1 .8-2.4h6.533l.061.001c.594 0 1.097-.389 1.27-.925l.003-.009 1.867-6.267zm-37.333 0a1.333 1.333 0 0 1 2.666 0l2 6.133c.133.533.667.933 1.333.933h6.4a1.333 1.333 0 0 1 .803 2.397l-5.337 3.869a1.331 1.331 0 0 0-.397 1.476l-.003-.009 2 6.267a1.333 1.333 0 0 1-2.005 1.463l.005.003-5.333-3.867a1.326 1.326 0 0 0-1.603.002l-5.33 3.864a1.333 1.333 0 0 1-1.997-1.476l-.002.009 2-6.267a1.332 1.332 0 0 0-.398-1.465l-.002-.002-5.467-4a1.334 1.334 0 0 1 .8-2.4h6.533l.061.001c.594 0 1.097-.389 1.27-.925l.003-.009 2-6.133zM89.333 4a1.333 1.333 0 0 1 2.666 0l2 6.133c.133.533.667.933 1.333.933h6.4a1.334 1.334 0 0 1 .934 2.267l-5.333 4a1.332 1.332 0 0 0-.398 1.476l-.003-.009 2 6.267a1.333 1.333 0 0 1-2.005 1.463l.005.003-5.333-3.867a1.326 1.326 0 0 0-1.603.002l-5.33 3.864a1.333 1.333 0 0 1-1.997-1.476l-.002.009 2-6.267a1.332 1.332 0 0 0-.398-1.465l-.002-.002-5.6-4a1.334 1.334 0 0 1 .8-2.4H86l.061.001c.594 0 1.097-.389 1.27-.925l.003-.009 2-6.133zM52 4a1.333 1.333 0 0 1 2.666 0l2 6.133c.133.533.667.933 1.333.933h6.4a1.334 1.334 0 0 1 .934 2.267l-5.333 4a1.332 1.332 0 0 0-.398 1.476l-.003-.009 2 6.267a1.333 1.333 0 0 1-2.005 1.463l.005.003-5.333-3.867a1.326 1.326 0 0 0-1.603.002l-5.33 3.864a1.333 1.333 0 0 1-1.997-1.476l-.002.009 2-6.267a1.332 1.332 0 0 0-.397-1.465l-.002-.002-5.6-4a1.334 1.334 0 0 1 .8-2.4h6.533l.061.001c.594 0 1.097-.389 1.27-.925l.003-.009 2-6.133z"/></symbol><symbol id="icon-speaks" viewBox="0 0 32 32"><path d="M24.576 14.976c0-6.784-6.144-11.136-12.288-11.136S0 8.192 0 14.976c0 2.56 1.024 4.992 2.688 6.912a17.001 17.001 0 0 1-2.344 5.569l.04-.065v.896c0 .256.256.384.512.384 2.688 0 5.76-.896 7.68-3.072h.128l3.584.384c6.144 0 12.288-4.352 12.288-11.008zm-15.616 9.6c-.384-.128-.768 0-1.152.256-1.792 2.176-4.864 2.56-6.4 2.688.64-1.024 1.792-2.944 2.304-5.12 0-.384 0-.896-.384-1.28a9.177 9.177 0 0 1-2.432-6.139v-.005c0-5.504 5.12-10.112 11.52-10.112 6.144 0 11.264 4.608 11.264 10.112s-5.12 9.984-11.392 9.984l-.209.002a12.84 12.84 0 0 1-3.207-.405l.089.019z"/><path d="M27.648 23.936c2.607-1.435 4.345-4.162 4.352-7.295v-.001c0-4.096-3.328-7.68-7.68-8.448-.384 0-.64.128-.64.512 0 .256.128.512.384.512 4.096.768 7.04 3.84 7.04 7.424 0 2.56-1.536 4.864-3.84 6.272a1.281 1.281 0 0 0-.638 1.417l-.002-.009c.256 1.28.64 2.432 1.024 3.2-2.688-.512-3.84-2.048-4.096-2.688a1.154 1.154 0 0 0-1.024-.64l-1.536-.128c-.256 0-.512.128-.512.384 0 .384 0 .64.384.64l1.664.128.256.128c1.28 2.56 4.096 3.2 5.376 3.328.256 0 .512 0 .64-.384v-.768a11.278 11.278 0 0 1-1.266-3.252l-.014-.076v-.256zM5.12 13.056c-1.024 0-1.792.768-1.792 1.792s.768 1.92 1.664 1.92c.896 0 1.664-.896 1.664-1.92s-.768-1.792-1.664-1.792zm0 2.56c-.512 0-.768-.256-.768-.768 0-.384.256-.768.64-.768s.768.384.768.768c0 .512-.384.768-.768.768zm4.48-2.56c-.896 0-1.536.768-1.536 1.792s.64 1.92 1.536 1.92 1.664-.896 1.664-1.92-.768-1.792-1.664-1.792zm0 2.56c-.384 0-.64-.256-.64-.768 0-.384.256-.768.64-.768s.768.384.768.768c0 .512-.384.768-.768.768zm4.736-2.56c-.896 0-1.664.768-1.664 1.792s.768 1.92 1.664 1.92c.896 0 1.536-.896 1.536-1.92s-.64-1.792-1.536-1.792zm0 2.56c-.384 0-.768-.256-.768-.768 0-.384.384-.768.768-.768s.64.384.64.768c0 .512-.256.768-.64.768zm4.608-2.56c-.896 0-1.664.768-1.664 1.792s.768 1.92 1.664 1.92c.896 0 1.664-.896 1.664-1.92s-.768-1.792-1.664-1.792zm0 2.56c-.384 0-.768-.256-.768-.768 0-.384.384-.768.768-.768s.64.384.64.768c0 .512-.256.768-.64.768z"/></symbol><symbol id="icon-twitter" viewBox="0 0 32 32"><path d="M32 5.4c-1.2.6-2.4 1-3.8 1.2 1.4-1 2.4-2.4 3-4L27 4.4a6.195 6.195 0 0 0-4.9-2.401L21.994 2h.005c-3.4 0-6.4 3.2-6.4 7.4V11A18.01 18.01 0 0 1 2.237 3.456L2.199 3.4a7.887 7.887 0 0 0-.8 3.606V7c0 2.6 1.2 4.8 2.8 6h-.007a5.977 5.977 0 0 1-3.022-.815l.028.015c0 3.8 2.4 6.8 5.4 7.6a6.03 6.03 0 0 1-3.042-.009l.042.009c.8 3 3.2 5 6 5.2a12.33 12.33 0 0 1-7.977 2.907c-.572 0-1.135-.039-1.687-.114l.064.007c3 2 6.4 3.2 10 3.2 12 0 18.8-11.2 18.8-20.8v-1a14.11 14.11 0 0 0 3.164-3.733l.036-.067z"/></symbol><symbol id="icon-close" viewBox="0 0 32 32"><path d="M30.222 32c.533 0 .889 0 1.244-.533.711-.533.711-1.778 0-2.311L2.844.534A1.778 1.778 0 1 0 .521 2.841l.012.004 28.622 28.622c.356.356.711.533 1.244.533z"/><path d="M1.778 32c.356 0 .711 0 1.067-.533L31.467 2.845A1.778 1.778 0 0 0 29.144.538l.012-.004L.534 29.156a1.778 1.778 0 0 0 1.055 2.843l.011.002z"/></symbol><symbol id="icon-menu" viewBox="0 0 60 32"><path d="M2 0h56a2 2 0 1 1 0 4H2a2 2 0 1 1 0-4zM2 14h56a2 2 0 1 1 0 4H2a2 2 0 1 1 0-4zM2 28h56a2 2 0 1 1 0 4H2a2 2 0 1 1 0-4z"/></symbol></defs></svg>